<?xml version="1.0" encoding="utf-8"?>
<!-- Generator: Adobe Illustrator 25.2.3, SVG Export Plug-In . SVG Version: 6.00 Build 0)  -->
<svg version="1.1" id="Layer_1" xmlns="http://www.w3.org/2000/svg" xmlns:xlink="http://www.w3.org/1999/xlink" x="0px" y="0px"
	 viewBox="0 0 275.3 76.5" style="enable-background:new 0 0 275.3 76.5;" xml:space="preserve">
<style type="text/css">
	.st0{enable-background:new    ;}
	.st1{fill:#FFFFFF;}
</style>
<rect x="120.8" width="154.5" height="76.5"/>
<g class="st0">
	<path d="M29.8,17.9c3.5,0,6.4,0.6,8.9,1.7c2.4,1.1,4.3,2.7,5.6,4.8c1.3,2.1,1.9,4.7,1.9,7.7c0,3-0.6,5.6-1.9,7.7
		c-1.3,2.1-3.2,3.7-5.6,4.8c-2.4,1.1-5.4,1.7-8.9,1.7h-8.4v14.2H10.3V17.9H29.8z M28.1,37.9c2.3,0,4.1-0.5,5.2-1.4
		c1.2-1,1.8-2.4,1.8-4.4c0-2-0.6-3.4-1.8-4.4c-1.2-1-2.9-1.4-5.2-1.4h-6.7v11.7H28.1z"/>
	<path d="M52.5,60.4V28.2h9.6l0.5,6.9c0.8-2.4,2-4.3,3.6-5.6c1.6-1.3,3.7-2,6.1-2c0.8,0,1.5,0.1,2.1,0.2c0.6,0.1,1,0.3,1.4,0.5
		l-1.1,9c-0.4-0.2-1-0.3-1.6-0.4c-0.7-0.1-1.5-0.2-2.4-0.2c-1.3,0-2.5,0.3-3.6,0.8c-1.1,0.6-2,1.4-2.7,2.5c-0.7,1.1-1,2.5-1,4.1
		v16.2H52.5z"/>
	<path d="M95.1,27.6c3.4,0,6.4,0.7,8.9,2c2.6,1.3,4.5,3.2,6,5.7c1.4,2.5,2.2,5.5,2.2,9c0,3.5-0.7,6.5-2.2,9c-1.4,2.5-3.4,4.4-6,5.7
		c-2.6,1.3-5.5,2-8.9,2c-3.3,0-6.2-0.7-8.8-2c-2.6-1.3-4.6-3.2-6-5.7c-1.4-2.5-2.2-5.5-2.2-9c0-3.5,0.7-6.5,2.2-9
		c1.4-2.5,3.4-4.4,6-5.7C88.8,28.2,91.8,27.6,95.1,27.6z M95.1,35.4c-1.2,0-2.3,0.3-3.2,0.9c-0.9,0.6-1.6,1.6-2.1,2.9
		c-0.5,1.3-0.7,3-0.7,5.1c0,2.1,0.2,3.8,0.7,5.1c0.5,1.3,1.2,2.3,2.1,2.9c0.9,0.6,2,0.9,3.2,0.9c1.3,0,2.4-0.3,3.3-0.9
		c0.9-0.6,1.6-1.6,2.1-2.9c0.5-1.3,0.7-3,0.7-5.1c0-2.1-0.2-3.8-0.7-5.1c-0.5-1.3-1.2-2.3-2.1-2.9C97.5,35.7,96.4,35.4,95.1,35.4z"
		/>
</g>
<g class="st0">
	<path class="st1" d="M158.2,30.8l2.9,3.6l1.7,2c3.2,4,4.8,8.2,4.8,12.6c0,4.3-1.4,8.1-4.3,11.3c-3.9,4.5-9,6.7-15.3,6.7
		c-4.9,0-8.9-1.5-12-4.5c-3.1-3-4.7-6.9-4.7-11.5c0-5.7,2.4-10.5,7.3-14.4c2.6-2,5-3,7.1-3c1.1,0,2.1,0.3,2.8,1
		c0.7,0.6,1.1,1.5,1.1,2.5c0,1.4-0.8,2.6-2.4,3.6l-2.5,1.5c-1.4,0.9-2.6,2.2-3.6,3.8c-1,1.6-1.4,3.2-1.4,4.8c0,2.5,0.8,4.5,2.5,6.2
		c1.7,1.6,3.8,2.4,6.4,2.4c2.9,0,5.4-1.1,7.5-3.2c2.1-2.1,3.2-4.7,3.2-7.6c0-1.8-0.4-3.5-1.3-5s-2.7-3.8-5.6-7
		c-2-2.2-3.4-4.1-4.3-5.8h-8.5c-2.9,0-4.3-1-4.3-3c0-1.4,0.5-2.6,1.5-3.3c1-0.8,2.4-1.2,4.3-1.2h5.4c0.4-4.1,2.3-7.6,5.7-10.3
		c3.4-2.7,7.4-4.1,12.1-4.1c3.5,0,6.4,1,8.7,2.9c2.2,1.9,3.3,4.5,3.3,7.6c0,4.1-1.8,7.3-5.3,9.5c-2,1.3-5.2,1.9-9.6,1.9H158.2z
		 M154.4,23.3h7.5c4.2,0,6.4-1.2,6.4-3.7c0-1-0.4-1.7-1.3-2.3c-0.9-0.6-2-0.9-3.5-0.9c-2.3,0-4.3,0.7-6.2,2.1
		C155.6,19.9,154.6,21.5,154.4,23.3z"/>
	<path class="st1" d="M189.3,28.2h1c2.7,0,4,0.9,4,2.8c0,1.3-0.5,2.3-1.4,3c-0.9,0.7-2.2,1.1-3.9,1.1h-2.3l-4.2,10.3h3.5
		c2.7,0,4,0.9,4,2.8c0,1.3-0.5,2.3-1.4,3s-2.2,1.1-3.9,1.1H179c-1.6,0-2.9-0.4-3.8-1.1c-0.9-0.7-1.4-1.7-1.4-3
		c0-0.8,0.2-1.6,0.6-2.6l0.6-1.4l3.7-9.1h-0.5c-2.3,0-3.5-0.9-3.5-2.7c0-1.3,0.5-2.3,1.4-3s2.2-1.1,3.9-1.1h1.4l1.7-4.1l0.3-0.8
		c1-2.3,2.5-3.5,4.6-3.5c0.9,0,1.6,0.3,2.2,0.9c0.6,0.6,0.9,1.3,0.9,2.1c0,0.8-0.3,1.8-0.8,3L189.3,28.2z"/>
	<path class="st1" d="M200.5,43.1c0,1.6,1.2,2.4,3.5,2.4h9.3c2.6,0,4,0.9,4,2.8c0,1.3-0.5,2.3-1.4,3c-0.9,0.7-2.2,1.1-3.9,1.1h-8.9
		c-3.3,0-5.8-0.8-7.6-2.4c-1.7-1.6-2.6-4-2.6-7.2c0-4,1.4-7.5,4.1-10.5c2.7-2.9,6-4.4,9.8-4.4c2.7,0,4.9,0.7,6.6,2.2
		s2.5,3.3,2.5,5.7c0,2.8-1.2,4.9-3.5,6.3c-1.3,0.8-3.2,1.2-5.7,1.2H200.5z M202,37.4h3.5c2.2,0,3.3-0.5,3.3-1.5
		c-0.1-1.1-0.8-1.7-2.2-1.7C204.6,34.2,203.1,35.3,202,37.4z"/>
	<path class="st1" d="M226,43.1c0,1.6,1.2,2.4,3.5,2.4h9.3c2.6,0,4,0.9,4,2.8c0,1.3-0.5,2.3-1.4,3c-0.9,0.7-2.2,1.1-3.9,1.1h-8.9
		c-3.3,0-5.8-0.8-7.6-2.4c-1.7-1.6-2.6-4-2.6-7.2c0-4,1.4-7.5,4.1-10.5c2.7-2.9,6-4.4,9.8-4.4c2.7,0,4.9,0.7,6.6,2.2
		s2.5,3.3,2.5,5.7c0,2.8-1.2,4.9-3.5,6.3c-1.3,0.8-3.2,1.2-5.7,1.2H226z M227.6,37.4h3.5c2.2,0,3.3-0.5,3.3-1.5
		c-0.1-1.1-0.8-1.7-2.2-1.7C230.2,34.2,228.7,35.3,227.6,37.4z"/>
	<path class="st1" d="M251.9,35.1l-1.1,2.6c-1,2.3-2.2,3.5-3.8,3.5c-0.9,0-1.7-0.3-2.4-0.8c-0.6-0.6-0.9-1.3-0.9-2.1
		c0-0.5,0.2-1.3,0.7-2.4l3.5-8.8c0.9-2.1,2.1-3.2,3.6-3.2c1.5,0,2.5,0.7,2.9,2.2l0.3,1c0.1,0.5,0.3,0.8,0.6,0.9
		c0.3,0.1,0.9,0.2,1.9,0.2h7.3c2.7,0,4.1,1,4.1,2.9c0,2.7-1.7,4-5.2,4l-0.3,0.3c-3.3,3.2-5,5.6-5,7.4s1,2.6,2.9,2.6h4
		c2.7,0,4,0.9,4,2.8c0,1.3-0.5,2.3-1.4,3s-2.2,1.1-3.9,1.1h-6.2c-2.1,0-3.8-0.7-5.1-2.2c-1.3-1.4-2-3.3-2-5.6c0-1.5,0.4-2.9,1.1-4.3
		s2-3.1,3.8-5.1H251.9z"/>
</g>
</svg>
